<?xml version="1.0" encoding="UTF-8"?><svg id="Layer_2" xmlns="http://www.w3.org/2000/svg" viewBox="0 0 197.57 122.95"><defs><style>.cls-1{fill:#fff;stroke-width:0px;}</style></defs><g id="Layer_1-2"><path class="cls-1" d="m50.07,46.11h-3.33c-.29,0-.43.17-.43.46v6.64h-3.56c-3.94,0-4.62-1.71-4.62-7.27s.68-7.3,4.62-7.3h6.33c.29,0,.43-.14.43-.43v-2.27c0-.49-.23-.66-.66-.77-1.4-.29-4.19-.43-6.1-.43-7.27,0-9.15,2.54-9.15,11.21s1.88,11.17,9.15,11.17c3.47,0,6.96-.57,7.64-1.74.08-.17.11-.29.11-.72v-8.09c0-.29-.15-.46-.43-.46Z"/><path class="cls-1" d="m62.35,34.74c-7.26,0-9.23,2.56-9.23,11.23s1.97,11.15,9.23,11.15,9.24-2.54,9.24-11.15-1.97-11.23-9.24-11.23Zm0,18.47c-3.94,0-4.7-1.71-4.7-7.24s.77-7.33,4.7-7.33,4.71,1.74,4.71,7.33-.77,7.24-4.71,7.24Z"/><path class="cls-1" d="m85.84,45.11l-5.33-2.08c-1.29-.48-1.68-1.14-1.68-2.14v-.4c0-1.25.88-1.85,2.62-1.85h6.75c.37,0,.54-.14.54-.51v-2.31c0-.26-.17-.4-.52-.52-2.22-.4-3.59-.57-5.96-.57-5.05,0-7.98,1.23-7.98,5.44v.63c0,3.31,1.02,4.93,3.39,5.81l5.56,2.08c1.49.57,2.06,1.14,2.06,2.37v.37c0,1.25-.88,1.77-2.6,1.77h-8.09c-.37,0-.54.17-.54.52v2.16c0,.37.11.54.49.63,2.68.43,4.93.6,7.04.6,4.93,0,8.21-1.26,8.21-5.48v-.8c0-3.31-1.23-4.65-3.96-5.73h0Z"/><path class="cls-1" d="m100.78,34.74c-2.34,0-5.07.08-7.58.31-.34.03-.43.09-.43.4v21.07c0,.37.09.46.43.46h3.61c.34,0,.43-.08.43-.46v-7.52h3.53c6.25,0,8.35-1.16,8.35-6.92s-2.11-7.33-8.35-7.33h0Zm-.46,10.8h-3.08v-6.9h3.08c3.39,0,4.28.68,4.28,3.53s-.88,3.37-4.28,3.37Z"/><path class="cls-1" d="m128.74,56.51l-5.02-18.36c-.86-3.11-1.4-3.42-4.85-3.42s-3.88.31-4.73,3.42l-5.11,18.36c-.06.34.06.46.37.46h3.61c.29,0,.31-.11.4-.46l1.59-5.71,1.06-3.92h0l.2-.74,1.88-6.82c.17-.68.23-.82.71-.82.57,0,.6.14.8.82l1.91,7.01.15.55,1,3.71.06.21,1.57,5.71c.09.34.11.46.37.46h3.66c.28,0,.43-.11.37-.46h0Z"/><path class="cls-1" d="m139.58,38.64h5.84c.29,0,.43-.14.43-.43v-2.28c0-.49-.23-.66-.66-.77-1.4-.25-3.11-.43-5.62-.43-7.27,0-9.15,2.54-9.15,11.17s1.88,11.21,9.15,11.21c2.51,0,4.22-.15,5.62-.43.43-.11.66-.29.66-.74v-2.31c0-.28-.14-.43-.43-.43h-5.84c-3.94,0-4.62-1.74-4.62-7.3s.68-7.27,4.62-7.27Z"/><path class="cls-1" d="m163.55,38.82c.29,0,.43-.14.43-.43v-3.05c0-.29-.14-.43-.43-.43h-14.29c-.29,0-.43.14-.43.43v21.18c0,.31.14.46.43.46h14.29c.29,0,.43-.14.43-.43v-3.05c0-.29-.14-.43-.43-.43h-10.24v-5.11h9.35c.29,0,.46-.14.46-.43v-2.91c0-.29-.17-.43-.46-.43h-9.35v-5.38h10.24Z"/><rect class="cls-1" x="61.06" y="64.13" width="8.3" height="24.1"/><rect class="cls-1" x="52.56" y="64.13" width="5.97" height="24.1"/><rect class="cls-1" x="45.47" y="64.2" width="4.55" height="24.1"/><rect class="cls-1" x="39.11" y="64.13" width="3.82" height="24.1"/><rect class="cls-1" x="33.79" y="64.13" width="2.85" height="24.1"/><path class="cls-1" d="m71.9,64.13v24.1h92.07v-24.1h-92.07Zm34.5,18.86c0,.18-.09.27-.27.27h-8.52c-.18,0-.27-.09-.27-.29v-13.47c0-.18.09-.27.27-.27h2.3c.18,0,.27.09.27.27v11.27h5.94c.18,0,.27.09.27.27v1.94h0Zm18.52.33h-2.32c-.16,0-.18-.07-.23-.29l-.96-3.48-.08-.29-.64-2.36-.11-.4-1.19-4.4c-.13-.44-.15-.52-.51-.52-.31,0-.34.09-.46.52l-1.25,4.53-.07.27-.72,2.64-.97,3.48c-.05.22-.07.29-.25.29h-2.3c-.2,0-.27-.07-.23-.29l3.25-11.67c.54-1.97.91-2.18,3.01-2.18s2.54.2,3.08,2.18l3.19,11.67c.03.22-.05.29-.23.29h0Zm11.76.05c-1.49,0-3.9-.05-5.49-.18-.22-.02-.27-.07-.27-.25v-13.34c0-.2.05-.23.27-.25,1.59-.15,3.57-.2,5.06-.2,3.51,0,5.02.98,5.02,3.9,0,1.95-.56,2.9-2.05,3.17v.05c1.81.22,2.36,1.33,2.36,3.26,0,2.96-1.51,3.84-4.89,3.84h0Zm20.66-3.48c0,2.68-2.08,3.48-5.22,3.48-1.35,0-2.77-.11-4.48-.38-.23-.05-.31-.16-.31-.39v-1.38c0-.22.11-.33.34-.33h5.15c1.09,0,1.65-.33,1.65-1.12v-.23c0-.78-.36-1.14-1.31-1.5l-3.53-1.33c-1.5-.56-2.16-1.6-2.16-3.7v-.4c0-2.68,1.87-3.46,5.07-3.46,1.51,0,2.37.11,3.79.36.22.07.33.16.33.33v1.47c0,.23-.11.33-.35.33h-4.29c-1.11,0-1.67.38-1.67,1.18v.25c0,.64.25,1.05,1.07,1.36l3.39,1.33c1.74.69,2.52,1.54,2.52,3.64v.51h0Z"/><path class="cls-1" d="m136.5,77.27h-2.74v3.61h2.72c1.56,0,2.21-.36,2.21-1.74,0-1.49-.74-1.87-2.2-1.87h0Z"/><path class="cls-1" d="m138.39,73.46c0-1.47-.72-1.85-2.43-1.85h-2.2v3.61h1.85c2.03,0,2.78-.23,2.78-1.76h0Z"/><path class="cls-1" d="m197.57,122.95H0V0h197.57v122.95ZM2.42,120.54h192.74V2.42H2.42v118.12Z"/></g></svg>